<svg width="512" height="512" viewBox="0 0 512 512" fill="none" xmlns="http://www.w3.org/2000/svg" xmlns:xlink="http://www.w3.org/1999/xlink" class="h-full w-full" id="iconWithBackground"><rect id="r4" width="512" height="512" x="0" y="0" rx="35" fill="url(#linearGradient)" stroke="#000000" stroke-width="0" stroke-opacity="100%" paint-order="stroke"></rect><defs><linearGradient id="linearGradient" gradientUnits="userSpaceOnUse" gradientTransform="rotate(0)" style="transform-origin: center center;"><stop stop-color="#2c72e2"></stop><stop offset="1" stop-color="#4a00e0"></stop></linearGradient><radialGradient id="glare" cx="0" cy="0" r="1" gradientUnits="userSpaceOnUse" gradientTransform="translate(256) rotate(90) scale(512)"><stop stop-color="white"></stop><stop offset="1" stop-color="white" stop-opacity="0"></stop></radialGradient><clipPath id="clip"><use xlink:href="#r4"></use></clipPath></defs><svg xmlns="http://www.w3.org/2000/svg" xmlns:xlink="http://www.w3.org/1999/xlink" aria-hidden="true" role="img" x="101.5" y="101.5" class="iconify iconify--mdi" width="309" height="309" viewBox="0 0 24 24" style="color: rgb(255, 255, 255);"><path fill="currentColor" d="M7 14v-3.09c-.72-.33-1.39-.73-2-1.2V14h2m-2 4H3v-2H1v-2h2V7h2v1.43C6.8 10 9.27 11 12 11c2.73 0 5.2-1 7-2.57V7h2v7h2v2h-2v2h-2v-2H5v2m12-7.09V14h2V9.71c-.61.47-1.28.87-2 1.2M16 14v-2.68c-.64.23-1.31.4-2 .52V14h2m-3 0v-2.04L12 12l-1-.04V14h2m-3 0v-2.16c-.69-.12-1.36-.29-2-.52V14h2Z"></path></svg></svg>